<?xml version="1.0" encoding="UTF-8" standalone="no"?>
<svg xmlns="http://www.w3.org/2000/svg"  width="600" height="900" viewbox="0 0 3 2"> 
<defs>
<desc>pictural description of the state machine of the CAN interface class</desc>

    <style type="text/css">
    <![CDATA[
      text {font-family:Verdana,sans-serif; font-size:12px;}
      polyline {fill:none; stroke:black; stroke-width:2px;}
      polygon {fill:none; stroke:black; stroke-width:1px;}
    ]]>
    </style>
    
  <g id="MyPatterns">
    <pattern id="muster2" x="10" y="10" width="10" height="10" patternUnits="userSpaceOnUse">
      <rect id="square" width="5" height="5" fill="orange" />
      <use href="#square" transform="translate(5,5)" />
    </pattern>
  </g>
  
  <g id="MyMarker">
    <marker id="pf1"
      viewBox="0 0 10 10" refX="0" refY="5"
      markerUnits="strokeWidth"
      markerWidth="8" markerHeight="8"
      orient="auto">
      <path d="M 0,0 l 10,5 l -10,5 z" />
    </marker>
    <marker id="dot1"
      viewBox="0 0 10 10" refX="5" refY="5"
      markerUnits="strokeWidth"
      markerWidth="8" markerHeight="8"
      orient="auto">
      <circle cx="5" cy="5" r="3"/>
    </marker>
    <marker id="dot_pp"
      viewBox="0 0 20 20" refX="10" refY="10"
      markerUnits="strokeWidth"
      markerWidth="8" markerHeight="8"
      orient="auto">
      <circle cx="10" cy="10" r="10"/>
      <text x="10" y="13" text-anchor="middle" font-size="10" fill="white">++</text>
    </marker>
    <marker id="dot_mm"
      viewBox="0 0 20 20" refX="10" refY="10"
      markerUnits="strokeWidth"
      markerWidth="8" markerHeight="8"
      orient="auto">
      <circle cx="10" cy="10" r="10"/>
      <text x="10" y="13" text-anchor="middle" font-size="10" fill="white">- -</text>
    </marker>

    <marker id="pf1a"
      viewBox="0 0 10 10" refX="0" refY="5"
      markerUnits="strokeWidth"
      markerWidth="15" markerHeight="15"
      orient="160">
      <path d="M 0,0 l 10,5 l -10,5 z" />
    </marker>
    <marker id="pf2"
      viewBox="0 0 10 10" refX="0" refY="5"
      markerWidth="50" markerHeight="50"
      orient="auto" >
      <path d="M 0,0 C 0,4 6,5 10,5 C 6,5 0,6 0,10 z"
        fill="red" stroke="black" stroke-width=".5" />
    </marker>
    <marker id="pf3"
      viewBox="0 0 20 10" refX="10" refY="5"
      markerWidth="30" markerHeight="30"
      orient="auto">
      <path d="M 0,0 L 20,5 L 0,10 z" />
    </marker>
  </g>

  <g id="SomeStuff">  
    <g id="boldRect">
        <rect x="-60" y="-180" rx="20" width="320" height="200" />
    </g>
  </g>
  
  <g id="States">
    <g id="DB_typedefs">
      <g id="NameBox">
        <rect x="-150" y="-20" width="300" height="40"  stroke="lightblue" fill="lightblue"/>
        <text x="0" y="0" text-anchor="middle" font-size="15" fill="white">CanIf State Machine</text>
      </g>
      <g id="State_PreInit">
        <circle cx="0" cy="0" r="50"  stroke="blue" fill="lightblue"/>
        <text x="0" y="-5" text-anchor="middle" font-size="15" fill="black">PreInit</text>
        <text x="0" y="13" text-anchor="middle" font-size="15" fill="grey">(on creation)</text>
      </g>
      <g id="State_HwInit">
        <circle cx="0" cy="0" r="50"  stroke="blue" fill="lightblue"/>
        <text x="0" y="-5" text-anchor="middle" font-size="15" fill="black">HwInit</text>
        <text x="0" y="13" text-anchor="middle" font-size="15" fill="grey">(Hardware Init)</text>
      </g>
      <g id="State_FilterInit">
        <circle cx="0" cy="0" r="50"  stroke="blue" fill="lightblue"/>
        <text x="0" y="-5" text-anchor="middle" font-size="15" fill="black">FilterInit</text>
        <text x="0" y="13" text-anchor="middle" font-size="15" fill="grey">(Software Init)</text>
      </g>
      <g id="State_Ready">
        <circle cx="0" cy="0" r="50"  stroke="blue" fill="lightblue"/>
        <text x="0" y="-5" text-anchor="middle" font-size="15" fill="black">Ready</text>
        <text x="0" y="13" text-anchor="middle" font-size="15" fill="grey">(working)</text>
      </g>
      <g id="State_Stopped">
        <circle cx="0" cy="0" r="50"  stroke="blue" fill="lightblue"/>
        <text x="0" y="-5" text-anchor="middle" font-size="15" fill="black">Stopped</text>
        <text x="0" y="13" text-anchor="middle" font-size="15" fill="grey">(by user)</text>
      </g>
      <g id="State_ErrorState">
        <circle cx="0" cy="0" r="50"  stroke="blue" fill="lightblue"/>
        <text x="0" y="-5" text-anchor="middle" font-size="15" fill="black">ErrorState</text>
        <text x="0" y="13" text-anchor="middle" font-size="15" fill="grey">(stopped by internal error)</text>
      </g>
      <g id="State_Shutdown">
        <circle cx="0" cy="0" r="50"  stroke="blue" fill="lightblue"/>
        <text x="0" y="-5" text-anchor="middle" font-size="15" fill="black">Shutdown</text>
        <text x="0" y="13" text-anchor="middle" font-size="15" fill="grey">(on destruction)</text>
      </g>
    </g>
    <g id="DB_Elements">
      <g id="NormalStepIncrement">
        <polyline points="0,0 10,0 20,10 20,90 10,100"
          marker-end="url(#pf1)" marker-start="url(#dot_pp)" />
      </g>
      <g id="LoopStepIncrement">
        <polyline points="0,0 10,0 20,10 20,20 10,30 -50,30 -60,20 -60,10 -55,5"
          marker-end="url(#pf1)" marker-start="url(#dot_pp)" />
      </g>
      <g id="ReverseStepIncrement">
        <polyline points="0,0 10,0 20,-10 20,-90 10,-100"
          marker-end="url(#pf1)" marker-start="url(#dot_pp)" />
      </g>
      <g id="ShutdownStepIncrement">
        <polyline points="0,0 -120,0 -125,5"
          marker-end="url(#pf1)" marker-start="url(#dot_pp)"/>
      </g>
      <g id="NormalStepDecrement">
        <polyline points="0,0 -10,0 -20,-10 -20,-90 -10,-100"
          marker-end="url(#pf1)" marker-start="url(#dot_mm)" />
      </g>
      <g id="DoubleStepDecrement">
        <polyline points="0,0 -20,0 -30,-10 -30,-260 -10,-270"
          marker-end="url(#pf1)" marker-start="url(#dot_mm)" />
      </g>
      <g id="LoopStepDecrement">
        <polyline points="0,0 -10,0 -20,-10 -20,-20 -10,-30 50,-30 60,-20 60,-10 55,-5"
          marker-end="url(#pf1)" marker-start="url(#dot_mm)" />
      </g>
      <g id="ErrorStepDecrement">
        <polyline points="0,0 -100,0 -110,10 -110,635 -105,640"
          marker-end="url(#pf1)" marker-start="url(#dot_mm)" />
      </g>
      <g id="ShutdownStepDecrement">
        <polyline points="0,0 -10,0 -20,10 -20,30 -30,40 -220,40 -230,30 -230,0 -225,-5"
          marker-end="url(#pf1)" marker-start="url(#dot_mm)"/>
      </g>
    </g>        
  </g>
  
  <g>
  </g>
</defs>  

      <use href="#NameBox" transform="translate(50,500) rotate(-90)"/> 
      <use href="#State_PreInit" transform="translate(300,100)"/> 
      <use href="#State_HwInit" transform="translate(300,250)"/> 
      <use href="#State_FilterInit" transform="translate(300,400)"/> 
      <use href="#State_Ready" transform="translate(300,550)"/>  
      <use href="#State_Stopped" transform="translate(300,700)"/>  
      <use href="#State_ErrorState" transform="translate(200,800)"/> 
      <use href="#State_Shutdown" transform="translate(400,800)"/>  
      <g id="incrementOperations">
        <use id="Inc_PreInit(to_HwInit)" href="#NormalStepIncrement" transform="translate(340,120)" />
        <use id="Inc_HwInit(to_FilterInit)" href="#NormalStepIncrement" transform="translate(340,270)"/>
        <use id="Inc_FilterInit(to_Ready)" href="#NormalStepIncrement" transform="translate(340,420)"/>
        <use id="Inc_Stopped(to_Ready)" href="#ReverseStepIncrement" transform="translate(340,680)"/>
        <use id="Inc_Ready(to_Ready)" href="#LoopStepIncrement" transform="translate(320,590)"/>
        <use id="Inc_Shutdown(by_default)"  href="#ShutdownStepIncrement" transform="translate(380,760)" />
        <use id="Inc_ErrorState(by_default)" href="#LoopStepIncrement" transform="translate(220,840)"/>
        
      </g>
      <g id="decrementOperations"> 
        <use id="Dec_PreInit(by_default)" href="#ErrorStepDecrement" transform="translate(260,120)"/>
        <use id="Dec_HwInit(to_HwInit)" href="#LoopStepDecrement" transform="translate(280,210)"/>
        <use id="Dec_FilterInit(to_HwInit)" href="#NormalStepDecrement" transform="translate(260,380)"/>
        <use id="Dec_Ready(to_FilterInit)" href="#NormalStepDecrement" transform="translate(260,530)"/>
        <use id="Dec_Stopped(to_FilterInit)" href="#DoubleStepDecrement" transform="translate(260,680)"/>
        <use id="Dec_Shutdown(by_default)"  href="#ShutdownStepDecrement" transform="translate(380,840)"/>
        <use id="Dec_ErrorState(by_default)" href="#LoopStepDecrement" transform="translate(180,760)"/>
      </g>
      
</svg>